<svg width="40" height="42" viewBox="0 0 40 42" fill="none" xmlns="http://www.w3.org/2000/svg">
<path d="M20 21.5C20 20.0413 20.5795 18.6424 21.6109 17.6109C22.6424 16.5795 24.0413 16 25.5 16C26.9587 16 28.3576 16.5795 29.3891 17.6109C30.4205 18.6424 31 20.0413 31 21.5C31 22.9587 30.4205 24.3576 29.3891 25.3891C28.3576 26.4205 26.9587 27 25.5 27C24.0413 27 22.6424 26.4205 21.6109 25.3891C20.5795 24.3576 20 22.9587 20 21.5V21.5Z" stroke="#1E1E1E" stroke-width="3.5"/>
<path d="M9 32.5C9 31.0413 9.57946 29.6424 10.6109 28.6109C11.6424 27.5795 13.0413 27 14.5 27H20V32.5C20 33.9587 19.4205 35.3576 18.3891 36.3891C17.3576 37.4205 15.9587 38 14.5 38C13.0413 38 11.6424 37.4205 10.6109 36.3891C9.57946 35.3576 9 33.9587 9 32.5Z" stroke="#1E1E1E" stroke-width="3.5"/>
<path d="M20 5V16H25.5C26.9587 16 28.3576 15.4205 29.3891 14.3891C30.4205 13.3576 31 11.9587 31 10.5C31 9.04131 30.4205 7.64236 29.3891 6.61091C28.3576 5.57946 26.9587 5 25.5 5H20Z" stroke="#1E1E1E" stroke-width="3.5"/>
<path d="M9 10.5C9 11.9587 9.57946 13.3576 10.6109 14.3891C11.6424 15.4205 13.0413 16 14.5 16H20V5H14.5C13.0413 5 11.6424 5.57946 10.6109 6.61091C9.57946 7.64236 9 9.04131 9 10.5Z" stroke="#1E1E1E" stroke-width="3.5"/>
<path d="M9 21.5C9 22.9587 9.57946 24.3576 10.6109 25.3891C11.6424 26.4205 13.0413 27 14.5 27H20V16H14.5C13.0413 16 11.6424 16.5795 10.6109 17.6109C9.57946 18.6424 9 20.0413 9 21.5Z" stroke="#1E1E1E" stroke-width="3.5"/>
</svg>
